# xmcd
#
# Track frame offsets:
#	150
#	21838
#	47828
#	63427
#	74022
#	89891
#	103948
#	136386
#	164809
#	205581
#	243839
#
# Disc length: 3667 seconds
#
# Revision: 1
# Processed by: cddbd v1.5.2PL0 Copyright (c) Steve Scherf et al.
# Submitted via: audiograbber 1.83.01
#
DISCID=a80e510b
DTITLE=Grateful Dead - 71-06-21 Chateau d'Herouville, Herouville, France
DYEAR=1900
DGENRE=
TTITLE0=Interview with Jerry Garcia
TTITLE1=Hard To Handle
TTITLE2=Deal
TTITLE3=Morning Dew
TTITLE4=China Cat Sunflower
TTITLE5=I Know You Rider
TTITLE6=Playing In The Band
TTITLE7=Big Boss Man
TTITLE8=Black Peter
TTITLE9=Bertha
TTITLE10=Casey Jones
EXTD=
EXTT0=
EXTT1=
EXTT2=
EXTT3=
EXTT4=
EXTT5=
EXTT6=
EXTT7=
EXTT8=
EXTT9=
EXTT10=
PLAYORDER=
